<?xml version="1.0" encoding="UTF-8" standalone="no"?><svg xmlns="http://www.w3.org/2000/svg" xmlns:xlink="http://www.w3.org/1999/xlink" contentStyleType="text/css" height="899px" preserveAspectRatio="none" style="width:972px;height:899px;background:#FFFFFF;" version="1.1" viewBox="0 0 972 899" width="972px" zoomAndPan="magnify"><defs/><g><!--MD5=[55ef9e2422a85ab7bec8c86c10f88b50]
cluster drone--><g id="cluster_drone"><path d="M793.5,391 L841.5,391 A3.75,3.75 0 0 1 844,393.5 L851,413.2969 L962.5,413.2969 A2.5,2.5 0 0 1 965,415.7969 L965,614.5 A2.5,2.5 0 0 1 962.5,617 L793.5,617 A2.5,2.5 0 0 1 791,614.5 L791,393.5 A2.5,2.5 0 0 1 793.5,391 " fill="none" style="stroke:#000000;stroke-width:1.5;"/><line style="stroke:#000000;stroke-width:1.5;" x1="791" x2="851" y1="413.2969" y2="413.2969"/><text fill="#000000" font-family="sans-serif" font-size="14" font-weight="bold" lengthAdjust="spacing" textLength="47" x="795" y="405.9951">drone</text></g><!--MD5=[c670268a59e1f2fa2e9d3e232bc65e6c]
cluster map--><g id="cluster_map"><path d="M346.5,666 L380.5,666 A3.75,3.75 0 0 1 383,668.5 L390,688.2969 L509.5,688.2969 A2.5,2.5 0 0 1 512,690.7969 L512,889.5 A2.5,2.5 0 0 1 509.5,892 L346.5,892 A2.5,2.5 0 0 1 344,889.5 L344,668.5 A2.5,2.5 0 0 1 346.5,666 " fill="none" style="stroke:#000000;stroke-width:1.5;"/><line style="stroke:#000000;stroke-width:1.5;" x1="344" x2="390" y1="688.2969" y2="688.2969"/><text fill="#000000" font-family="sans-serif" font-size="14" font-weight="bold" lengthAdjust="spacing" textLength="33" x="348" y="680.9951">map</text></g><!--MD5=[f977f4f25e731d82c647a39dabc5b9bd]
cluster stage--><g id="cluster_stage"><path d="M228.5,391 L273.5,391 A3.75,3.75 0 0 1 276,393.5 L283,413.2969 L764.5,413.2969 A2.5,2.5 0 0 1 767,415.7969 L767,487.5 A2.5,2.5 0 0 1 764.5,490 L228.5,490 A2.5,2.5 0 0 1 226,487.5 L226,393.5 A2.5,2.5 0 0 1 228.5,391 " fill="none" style="stroke:#000000;stroke-width:1.5;"/><line style="stroke:#000000;stroke-width:1.5;" x1="226" x2="283" y1="413.2969" y2="413.2969"/><text fill="#000000" font-family="sans-serif" font-size="14" font-weight="bold" lengthAdjust="spacing" textLength="44" x="230" y="405.9951">stage</text></g><!--MD5=[a2eef0b84d3b6c891bdcb3ede2b90dab]
cluster position--><g id="cluster_position"><path d="M666.5,666 L730.5,666 A3.75,3.75 0 0 1 733,668.5 L740,688.2969 L801.5,688.2969 A2.5,2.5 0 0 1 804,690.7969 L804,762.5 A2.5,2.5 0 0 1 801.5,765 L666.5,765 A2.5,2.5 0 0 1 664,762.5 L664,668.5 A2.5,2.5 0 0 1 666.5,666 " fill="none" style="stroke:#000000;stroke-width:1.5;"/><line style="stroke:#000000;stroke-width:1.5;" x1="664" x2="740" y1="688.2969" y2="688.2969"/><text fill="#000000" font-family="sans-serif" font-size="14" font-weight="bold" lengthAdjust="spacing" textLength="63" x="668" y="680.9951">position</text></g><!--MD5=[2543bc96e7f52754a5d168e5903ba0d4]
cluster search--><g id="cluster_search"><path d="M358.5,243 L413.5,243 A3.75,3.75 0 0 1 416,245.5 L423,265.2969 L493.5,265.2969 A2.5,2.5 0 0 1 496,267.7969 L496,339.5 A2.5,2.5 0 0 1 493.5,342 L358.5,342 A2.5,2.5 0 0 1 356,339.5 L356,245.5 A2.5,2.5 0 0 1 358.5,243 " fill="none" style="stroke:#000000;stroke-width:1.5;"/><line style="stroke:#000000;stroke-width:1.5;" x1="356" x2="423" y1="265.2969" y2="265.2969"/><text fill="#000000" font-family="sans-serif" font-size="14" font-weight="bold" lengthAdjust="spacing" textLength="54" x="360" y="257.9951">search</text></g><!--MD5=[3eae4776c3b9c1cd85205e10c2ca709f]
cluster report--><g id="cluster_report"><path d="M522.5,243 L573.5,243 A3.75,3.75 0 0 1 576,245.5 L583,265.2969 L699.5,265.2969 A2.5,2.5 0 0 1 702,267.7969 L702,339.5 A2.5,2.5 0 0 1 699.5,342 L522.5,342 A2.5,2.5 0 0 1 520,339.5 L520,245.5 A2.5,2.5 0 0 1 522.5,243 " fill="none" style="stroke:#000000;stroke-width:1.5;"/><line style="stroke:#000000;stroke-width:1.5;" x1="520" x2="583" y1="265.2969" y2="265.2969"/><text fill="#000000" font-family="sans-serif" font-size="14" font-weight="bold" lengthAdjust="spacing" textLength="50" x="524" y="257.9951">report</text></g><!--MD5=[cad4519389d7b02f6b54794e3e7683f4]
class DroneController--><g id="elem_DroneController"><rect codeLine="13" fill="#3EC8B2" height="48" id="DroneController" rx="2.5" ry="2.5" style="stroke:#000000;stroke-width:0.5;" width="142" x="807" y="426"/><ellipse cx="822" cy="442" fill="#ADD1B2" rx="11" ry="11" style="stroke:#181818;stroke-width:1.0;"/><path d="M824.9688,447.6406 Q824.3906,447.9375 823.75,448.0781 Q823.1094,448.2344 822.4063,448.2344 Q819.9063,448.2344 818.5781,446.5938 Q817.2656,444.9375 817.2656,441.8125 Q817.2656,438.6875 818.5781,437.0313 Q819.9063,435.375 822.4063,435.375 Q823.1094,435.375 823.75,435.5313 Q824.4063,435.6875 824.9688,435.9844 L824.9688,438.7031 Q824.3438,438.125 823.75,437.8594 Q823.1563,437.5781 822.5313,437.5781 Q821.1875,437.5781 820.5,438.6563 Q819.8125,439.7188 819.8125,441.8125 Q819.8125,443.9063 820.5,444.9844 Q821.1875,446.0469 822.5313,446.0469 Q823.1563,446.0469 823.75,445.7813 Q824.3438,445.5 824.9688,444.9219 L824.9688,447.6406 Z " fill="#000000"/><text fill="#000000" font-family="sans-serif" font-size="14" lengthAdjust="spacing" textLength="110" x="836" y="446.8467">DroneController</text><line style="stroke:#000000;stroke-width:0.5;" x1="808" x2="948" y1="458" y2="458"/><line style="stroke:#000000;stroke-width:0.5;" x1="808" x2="948" y1="466" y2="466"/></g><!--MD5=[b1cc84991de92b3a8601be8d18a2c48b]
class BasicDrone--><g id="elem_BasicDrone"><rect codeLine="14" fill="#3EC8B2" height="48" id="BasicDrone" rx="2.5" ry="2.5" style="stroke:#000000;stroke-width:0.5;" width="112" x="807" y="553"/><ellipse cx="822" cy="569" fill="#ADD1B2" rx="11" ry="11" style="stroke:#181818;stroke-width:1.0;"/><path d="M824.9688,574.6406 Q824.3906,574.9375 823.75,575.0781 Q823.1094,575.2344 822.4063,575.2344 Q819.9063,575.2344 818.5781,573.5938 Q817.2656,571.9375 817.2656,568.8125 Q817.2656,565.6875 818.5781,564.0313 Q819.9063,562.375 822.4063,562.375 Q823.1094,562.375 823.75,562.5313 Q824.4063,562.6875 824.9688,562.9844 L824.9688,565.7031 Q824.3438,565.125 823.75,564.8594 Q823.1563,564.5781 822.5313,564.5781 Q821.1875,564.5781 820.5,565.6563 Q819.8125,566.7188 819.8125,568.8125 Q819.8125,570.9063 820.5,571.9844 Q821.1875,573.0469 822.5313,573.0469 Q823.1563,573.0469 823.75,572.7813 Q824.3438,572.5 824.9688,571.9219 L824.9688,574.6406 Z " fill="#000000"/><text fill="#000000" font-family="sans-serif" font-size="14" lengthAdjust="spacing" textLength="80" x="836" y="573.8467">BasicDrone</text><line style="stroke:#000000;stroke-width:0.5;" x1="808" x2="918" y1="585" y2="585"/><line style="stroke:#000000;stroke-width:0.5;" x1="808" x2="918" y1="593" y2="593"/></g><!--MD5=[833e641434d78a9909f656de00b75ea9]
class ListMap--><g id="elem_ListMap"><rect codeLine="18" fill="#3EC8B2" height="48" id="ListMap" rx="2.5" ry="2.5" style="stroke:#000000;stroke-width:0.5;" width="84" x="373" y="701"/><ellipse cx="388" cy="717" fill="#ADD1B2" rx="11" ry="11" style="stroke:#181818;stroke-width:1.0;"/><path d="M390.9688,722.6406 Q390.3906,722.9375 389.75,723.0781 Q389.1094,723.2344 388.4063,723.2344 Q385.9063,723.2344 384.5781,721.5938 Q383.2656,719.9375 383.2656,716.8125 Q383.2656,713.6875 384.5781,712.0313 Q385.9063,710.375 388.4063,710.375 Q389.1094,710.375 389.75,710.5313 Q390.4063,710.6875 390.9688,710.9844 L390.9688,713.7031 Q390.3438,713.125 389.75,712.8594 Q389.1563,712.5781 388.5313,712.5781 Q387.1875,712.5781 386.5,713.6563 Q385.8125,714.7188 385.8125,716.8125 Q385.8125,718.9063 386.5,719.9844 Q387.1875,721.0469 388.5313,721.0469 Q389.1563,721.0469 389.75,720.7813 Q390.3438,720.5 390.9688,719.9219 L390.9688,722.6406 Z " fill="#000000"/><text fill="#000000" font-family="sans-serif" font-size="14" lengthAdjust="spacing" textLength="52" x="402" y="721.8467">ListMap</text><line style="stroke:#000000;stroke-width:0.5;" x1="374" x2="456" y1="733" y2="733"/><line style="stroke:#000000;stroke-width:0.5;" x1="374" x2="456" y1="741" y2="741"/></g><!--MD5=[a7f6a4a709a56d2ca69dba73d2e1d24a]
class PointOfInterest--><g id="elem_PointOfInterest"><rect codeLine="19" fill="#3EC8B2" height="48" id="PointOfInterest" rx="2.5" ry="2.5" style="stroke:#000000;stroke-width:0.5;" width="135" x="360.5" y="828"/><ellipse cx="375.5" cy="844" fill="#ADD1B2" rx="11" ry="11" style="stroke:#181818;stroke-width:1.0;"/><path d="M378.4688,849.6406 Q377.8906,849.9375 377.25,850.0781 Q376.6094,850.2344 375.9063,850.2344 Q373.4063,850.2344 372.0781,848.5938 Q370.7656,846.9375 370.7656,843.8125 Q370.7656,840.6875 372.0781,839.0313 Q373.4063,837.375 375.9063,837.375 Q376.6094,837.375 377.25,837.5313 Q377.9063,837.6875 378.4688,837.9844 L378.4688,840.7031 Q377.8438,840.125 377.25,839.8594 Q376.6563,839.5781 376.0313,839.5781 Q374.6875,839.5781 374,840.6563 Q373.3125,841.7188 373.3125,843.8125 Q373.3125,845.9063 374,846.9844 Q374.6875,848.0469 376.0313,848.0469 Q376.6563,848.0469 377.25,847.7813 Q377.8438,847.5 378.4688,846.9219 L378.4688,849.6406 Z " fill="#000000"/><text fill="#000000" font-family="sans-serif" font-size="14" lengthAdjust="spacing" textLength="103" x="389.5" y="848.8467">PointOfInterest</text><line style="stroke:#000000;stroke-width:0.5;" x1="361.5" x2="494.5" y1="860" y2="860"/><line style="stroke:#000000;stroke-width:0.5;" x1="361.5" x2="494.5" y1="868" y2="868"/></g><!--MD5=[479604a59e46df93ef17a10045606f66]
class FindIsland--><g id="elem_FindIsland"><rect codeLine="23" fill="#3EC8B2" height="48" id="FindIsland" rx="2.5" ry="2.5" style="stroke:#000000;stroke-width:0.5;" width="101" x="242.5" y="426"/><ellipse cx="257.5" cy="442" fill="#ADD1B2" rx="11" ry="11" style="stroke:#181818;stroke-width:1.0;"/><path d="M260.4688,447.6406 Q259.8906,447.9375 259.25,448.0781 Q258.6094,448.2344 257.9063,448.2344 Q255.4063,448.2344 254.0781,446.5938 Q252.7656,444.9375 252.7656,441.8125 Q252.7656,438.6875 254.0781,437.0313 Q255.4063,435.375 257.9063,435.375 Q258.6094,435.375 259.25,435.5313 Q259.9063,435.6875 260.4688,435.9844 L260.4688,438.7031 Q259.8438,438.125 259.25,437.8594 Q258.6563,437.5781 258.0313,437.5781 Q256.6875,437.5781 256,438.6563 Q255.3125,439.7188 255.3125,441.8125 Q255.3125,443.9063 256,444.9844 Q256.6875,446.0469 258.0313,446.0469 Q258.6563,446.0469 259.25,445.7813 Q259.8438,445.5 260.4688,444.9219 L260.4688,447.6406 Z " fill="#000000"/><text fill="#000000" font-family="sans-serif" font-size="14" lengthAdjust="spacing" textLength="69" x="271.5" y="446.8467">FindIsland</text><line style="stroke:#000000;stroke-width:0.5;" x1="243.5" x2="342.5" y1="458" y2="458"/><line style="stroke:#000000;stroke-width:0.5;" x1="243.5" x2="342.5" y1="466" y2="466"/></g><!--MD5=[285ab7d62d4066227885d174393fe1a8]
class ScanLine--><g id="elem_ScanLine"><rect codeLine="24" fill="#3EC8B2" height="48" id="ScanLine" rx="2.5" ry="2.5" style="stroke:#000000;stroke-width:0.5;" width="94" x="379" y="426"/><ellipse cx="394" cy="442" fill="#ADD1B2" rx="11" ry="11" style="stroke:#181818;stroke-width:1.0;"/><path d="M396.9688,447.6406 Q396.3906,447.9375 395.75,448.0781 Q395.1094,448.2344 394.4063,448.2344 Q391.9063,448.2344 390.5781,446.5938 Q389.2656,444.9375 389.2656,441.8125 Q389.2656,438.6875 390.5781,437.0313 Q391.9063,435.375 394.4063,435.375 Q395.1094,435.375 395.75,435.5313 Q396.4063,435.6875 396.9688,435.9844 L396.9688,438.7031 Q396.3438,438.125 395.75,437.8594 Q395.1563,437.5781 394.5313,437.5781 Q393.1875,437.5781 392.5,438.6563 Q391.8125,439.7188 391.8125,441.8125 Q391.8125,443.9063 392.5,444.9844 Q393.1875,446.0469 394.5313,446.0469 Q395.1563,446.0469 395.75,445.7813 Q396.3438,445.5 396.9688,444.9219 L396.9688,447.6406 Z " fill="#000000"/><text fill="#000000" font-family="sans-serif" font-size="14" lengthAdjust="spacing" textLength="62" x="408" y="446.8467">ScanLine</text><line style="stroke:#000000;stroke-width:0.5;" x1="380" x2="472" y1="458" y2="458"/><line style="stroke:#000000;stroke-width:0.5;" x1="380" x2="472" y1="466" y2="466"/></g><!--MD5=[0597e0d8025340cc6e5ec1a45eddfb4c]
class MoveToCorner--><g id="elem_MoveToCorner"><rect codeLine="25" fill="#3EC8B2" height="48" id="MoveToCorner" rx="2.5" ry="2.5" style="stroke:#000000;stroke-width:0.5;" width="134" x="508" y="426"/><ellipse cx="523" cy="442" fill="#ADD1B2" rx="11" ry="11" style="stroke:#181818;stroke-width:1.0;"/><path d="M525.9688,447.6406 Q525.3906,447.9375 524.75,448.0781 Q524.1094,448.2344 523.4063,448.2344 Q520.9063,448.2344 519.5781,446.5938 Q518.2656,444.9375 518.2656,441.8125 Q518.2656,438.6875 519.5781,437.0313 Q520.9063,435.375 523.4063,435.375 Q524.1094,435.375 524.75,435.5313 Q525.4063,435.6875 525.9688,435.9844 L525.9688,438.7031 Q525.3438,438.125 524.75,437.8594 Q524.1563,437.5781 523.5313,437.5781 Q522.1875,437.5781 521.5,438.6563 Q520.8125,439.7188 520.8125,441.8125 Q520.8125,443.9063 521.5,444.9844 Q522.1875,446.0469 523.5313,446.0469 Q524.1563,446.0469 524.75,445.7813 Q525.3438,445.5 525.9688,444.9219 L525.9688,447.6406 Z " fill="#000000"/><text fill="#000000" font-family="sans-serif" font-size="14" lengthAdjust="spacing" textLength="102" x="537" y="446.8467">MoveToCorner</text><line style="stroke:#000000;stroke-width:0.5;" x1="509" x2="641" y1="458" y2="458"/><line style="stroke:#000000;stroke-width:0.5;" x1="509" x2="641" y1="466" y2="466"/></g><!--MD5=[706da705568b68471d84a7b50009317d]
class UTurn--><g id="elem_UTurn"><rect codeLine="26" fill="#3EC8B2" height="48" id="UTurn" rx="2.5" ry="2.5" style="stroke:#000000;stroke-width:0.5;" width="74" x="677" y="426"/><ellipse cx="692" cy="442" fill="#ADD1B2" rx="11" ry="11" style="stroke:#181818;stroke-width:1.0;"/><path d="M694.9688,447.6406 Q694.3906,447.9375 693.75,448.0781 Q693.1094,448.2344 692.4063,448.2344 Q689.9063,448.2344 688.5781,446.5938 Q687.2656,444.9375 687.2656,441.8125 Q687.2656,438.6875 688.5781,437.0313 Q689.9063,435.375 692.4063,435.375 Q693.1094,435.375 693.75,435.5313 Q694.4063,435.6875 694.9688,435.9844 L694.9688,438.7031 Q694.3438,438.125 693.75,437.8594 Q693.1563,437.5781 692.5313,437.5781 Q691.1875,437.5781 690.5,438.6563 Q689.8125,439.7188 689.8125,441.8125 Q689.8125,443.9063 690.5,444.9844 Q691.1875,446.0469 692.5313,446.0469 Q693.1563,446.0469 693.75,445.7813 Q694.3438,445.5 694.9688,444.9219 L694.9688,447.6406 Z " fill="#000000"/><text fill="#000000" font-family="sans-serif" font-size="14" lengthAdjust="spacing" textLength="42" x="706" y="446.8467">UTurn</text><line style="stroke:#000000;stroke-width:0.5;" x1="678" x2="750" y1="458" y2="458"/><line style="stroke:#000000;stroke-width:0.5;" x1="678" x2="750" y1="466" y2="466"/></g><!--MD5=[8c7d7abc12e214c3cc12c9ab70edee11]
class Coordinate--><g id="elem_Coordinate"><rect codeLine="30" fill="#3EC8B2" height="48" id="Coordinate" rx="2.5" ry="2.5" style="stroke:#000000;stroke-width:0.5;" width="108" x="680" y="701"/><ellipse cx="695" cy="717" fill="#ADD1B2" rx="11" ry="11" style="stroke:#181818;stroke-width:1.0;"/><path d="M697.9688,722.6406 Q697.3906,722.9375 696.75,723.0781 Q696.1094,723.2344 695.4063,723.2344 Q692.9063,723.2344 691.5781,721.5938 Q690.2656,719.9375 690.2656,716.8125 Q690.2656,713.6875 691.5781,712.0313 Q692.9063,710.375 695.4063,710.375 Q696.1094,710.375 696.75,710.5313 Q697.4063,710.6875 697.9688,710.9844 L697.9688,713.7031 Q697.3438,713.125 696.75,712.8594 Q696.1563,712.5781 695.5313,712.5781 Q694.1875,712.5781 693.5,713.6563 Q692.8125,714.7188 692.8125,716.8125 Q692.8125,718.9063 693.5,719.9844 Q694.1875,721.0469 695.5313,721.0469 Q696.1563,721.0469 696.75,720.7813 Q697.3438,720.5 697.9688,719.9219 L697.9688,722.6406 Z " fill="#000000"/><text fill="#000000" font-family="sans-serif" font-size="14" lengthAdjust="spacing" textLength="76" x="709" y="721.8467">Coordinate</text><line style="stroke:#000000;stroke-width:0.5;" x1="681" x2="787" y1="733" y2="733"/><line style="stroke:#000000;stroke-width:0.5;" x1="681" x2="787" y1="741" y2="741"/></g><!--MD5=[75111125d61f0ab8d3625103a9932eb7]
class GridSearch--><g id="elem_GridSearch"><rect codeLine="34" fill="#3EC8B2" height="48" id="GridSearch" rx="2.5" ry="2.5" style="stroke:#000000;stroke-width:0.5;" width="108" x="372" y="278"/><ellipse cx="387" cy="294" fill="#ADD1B2" rx="11" ry="11" style="stroke:#181818;stroke-width:1.0;"/><path d="M389.9688,299.6406 Q389.3906,299.9375 388.75,300.0781 Q388.1094,300.2344 387.4063,300.2344 Q384.9063,300.2344 383.5781,298.5938 Q382.2656,296.9375 382.2656,293.8125 Q382.2656,290.6875 383.5781,289.0313 Q384.9063,287.375 387.4063,287.375 Q388.1094,287.375 388.75,287.5313 Q389.4063,287.6875 389.9688,287.9844 L389.9688,290.7031 Q389.3438,290.125 388.75,289.8594 Q388.1563,289.5781 387.5313,289.5781 Q386.1875,289.5781 385.5,290.6563 Q384.8125,291.7188 384.8125,293.8125 Q384.8125,295.9063 385.5,296.9844 Q386.1875,298.0469 387.5313,298.0469 Q388.1563,298.0469 388.75,297.7813 Q389.3438,297.5 389.9688,296.9219 L389.9688,299.6406 Z " fill="#000000"/><text fill="#000000" font-family="sans-serif" font-size="14" lengthAdjust="spacing" textLength="76" x="401" y="298.8467">GridSearch</text><line style="stroke:#000000;stroke-width:0.5;" x1="373" x2="479" y1="310" y2="310"/><line style="stroke:#000000;stroke-width:0.5;" x1="373" x2="479" y1="318" y2="318"/></g><!--MD5=[71556af9a4c2905f9a63f25ba2c5bd20]
class NavigationReport--><g id="elem_NavigationReport"><rect codeLine="38" fill="#3EC8B2" height="48" id="NavigationReport" rx="2.5" ry="2.5" style="stroke:#000000;stroke-width:0.5;" width="150" x="536" y="278"/><ellipse cx="551" cy="294" fill="#ADD1B2" rx="11" ry="11" style="stroke:#181818;stroke-width:1.0;"/><path d="M553.9688,299.6406 Q553.3906,299.9375 552.75,300.0781 Q552.1094,300.2344 551.4063,300.2344 Q548.9063,300.2344 547.5781,298.5938 Q546.2656,296.9375 546.2656,293.8125 Q546.2656,290.6875 547.5781,289.0313 Q548.9063,287.375 551.4063,287.375 Q552.1094,287.375 552.75,287.5313 Q553.4063,287.6875 553.9688,287.9844 L553.9688,290.7031 Q553.3438,290.125 552.75,289.8594 Q552.1563,289.5781 551.5313,289.5781 Q550.1875,289.5781 549.5,290.6563 Q548.8125,291.7188 548.8125,293.8125 Q548.8125,295.9063 549.5,296.9844 Q550.1875,298.0469 551.5313,298.0469 Q552.1563,298.0469 552.75,297.7813 Q553.3438,297.5 553.9688,296.9219 L553.9688,299.6406 Z " fill="#000000"/><text fill="#000000" font-family="sans-serif" font-size="14" lengthAdjust="spacing" textLength="118" x="565" y="298.8467">NavigationReport</text><line style="stroke:#000000;stroke-width:0.5;" x1="537" x2="685" y1="310" y2="310"/><line style="stroke:#000000;stroke-width:0.5;" x1="537" x2="685" y1="318" y2="318"/></g><!--MD5=[58299f72e519a9852937d5dfab00b46a]
class Explorer--><g id="elem_Explorer"><rect codeLine="41" fill="#3EC8B2" height="48" id="Explorer" rx="2.5" ry="2.5" style="stroke:#000000;stroke-width:0.5;" width="88" x="382" y="132"/><ellipse cx="397" cy="148" fill="#ADD1B2" rx="11" ry="11" style="stroke:#181818;stroke-width:1.0;"/><path d="M399.9688,153.6406 Q399.3906,153.9375 398.75,154.0781 Q398.1094,154.2344 397.4063,154.2344 Q394.9063,154.2344 393.5781,152.5938 Q392.2656,150.9375 392.2656,147.8125 Q392.2656,144.6875 393.5781,143.0313 Q394.9063,141.375 397.4063,141.375 Q398.1094,141.375 398.75,141.5313 Q399.4063,141.6875 399.9688,141.9844 L399.9688,144.7031 Q399.3438,144.125 398.75,143.8594 Q398.1563,143.5781 397.5313,143.5781 Q396.1875,143.5781 395.5,144.6563 Q394.8125,145.7188 394.8125,147.8125 Q394.8125,149.9063 395.5,150.9844 Q396.1875,152.0469 397.5313,152.0469 Q398.1563,152.0469 398.75,151.7813 Q399.3438,151.5 399.9688,150.9219 L399.9688,153.6406 Z " fill="#000000"/><text fill="#000000" font-family="sans-serif" font-size="14" lengthAdjust="spacing" textLength="56" x="411" y="152.8467">Explorer</text><line style="stroke:#000000;stroke-width:0.5;" x1="383" x2="469" y1="164" y2="164"/><line style="stroke:#000000;stroke-width:0.5;" x1="383" x2="469" y1="172" y2="172"/></g><!--MD5=[cd45b77dafe01d3c8a27bbc3fefc2e35]
class Runner--><g id="elem_Runner"><rect codeLine="42" fill="#3EC8B2" height="48" id="Runner" rx="2.5" ry="2.5" style="stroke:#000000;stroke-width:0.5;" width="83" x="384.5" y="7"/><ellipse cx="399.5" cy="23" fill="#ADD1B2" rx="11" ry="11" style="stroke:#181818;stroke-width:1.0;"/><path d="M402.4688,28.6406 Q401.8906,28.9375 401.25,29.0781 Q400.6094,29.2344 399.9063,29.2344 Q397.4063,29.2344 396.0781,27.5938 Q394.7656,25.9375 394.7656,22.8125 Q394.7656,19.6875 396.0781,18.0313 Q397.4063,16.375 399.9063,16.375 Q400.6094,16.375 401.25,16.5313 Q401.9063,16.6875 402.4688,16.9844 L402.4688,19.7031 Q401.8438,19.125 401.25,18.8594 Q400.6563,18.5781 400.0313,18.5781 Q398.6875,18.5781 398,19.6563 Q397.3125,20.7188 397.3125,22.8125 Q397.3125,24.9063 398,25.9844 Q398.6875,27.0469 400.0313,27.0469 Q400.6563,27.0469 401.25,26.7813 Q401.8438,26.5 402.4688,25.9219 L402.4688,28.6406 Z " fill="#000000"/><text fill="#000000" font-family="sans-serif" font-size="14" lengthAdjust="spacing" textLength="51" x="413.5" y="27.8467">Runner</text><line style="stroke:#000000;stroke-width:0.5;" x1="385.5" x2="466.5" y1="39" y2="39"/><line style="stroke:#000000;stroke-width:0.5;" x1="385.5" x2="466.5" y1="47" y2="47"/></g><!--MD5=[89bea2fb5f65ef65d53e6f03143e50db]
link DroneController to BasicDrone--><g id="link_DroneController_BasicDrone"><path codeLine="47" d="M873.7719,486.1335 C873.7719,486.1335 869.32,523.35 867.34,539.87 " fill="none" id="DroneController-BasicDrone" style="stroke:#181818;stroke-width:1.0;"/><polygon fill="#181818" points="865.77,552.91,870.8094,544.4481,866.3631,547.9453,862.8659,543.499,865.77,552.91" style="stroke:#181818;stroke-width:1.0;"/><line style="stroke:#181818;stroke-width:1.0;" x1="866.3631" x2="867.32" y1="547.9453" y2="540"/><polygon fill="none" points="875.21,474.22,870.5198,479.6974,873.7719,486.1335,878.4621,480.6561,875.21,474.22" style="stroke:#181818;stroke-width:1.0;"/><text fill="#000000" font-family="sans-serif" font-size="13" lengthAdjust="spacing" textLength="51" x="872" y="519.0669">controls</text><text fill="#000000" font-family="sans-serif" font-size="13" lengthAdjust="spacing" textLength="8" x="865.5549" y="494.0348">1</text><text fill="#000000" font-family="sans-serif" font-size="13" lengthAdjust="spacing" textLength="8" x="857.4548" y="541.899">1</text></g><!--MD5=[86f858a01dfb5b870207710431210d84]
link BasicDrone to Coordinate--><g id="link_BasicDrone_Coordinate"><path codeLine="48" d="M834.6114,610.12 C834.6114,610.12 784.29,667.08 763.19,690.97 " fill="none" id="BasicDrone-Coordinate" style="stroke:#181818;stroke-width:1.0;"/><polygon fill="#181818" points="754.34,700.97,763.2947,696.8697,757.6488,697.2215,757.2971,691.5755,754.34,700.97" style="stroke:#181818;stroke-width:1.0;"/><line style="stroke:#181818;stroke-width:1.0;" x1="757.6488" x2="762.95" y1="697.2215" y2="691.23"/><polygon fill="#181818" points="842.56,601.13,835.589,602.9754,834.6114,610.12,841.5824,608.2745,842.56,601.13" style="stroke:#181818;stroke-width:1.0;"/><text fill="#000000" font-family="sans-serif" font-size="13" lengthAdjust="spacing" textLength="63" x="814" y="646.0669">locates at</text><text fill="#000000" font-family="sans-serif" font-size="13" lengthAdjust="spacing" textLength="8" x="828.6027" y="620.9229">1</text><text fill="#000000" font-family="sans-serif" font-size="13" lengthAdjust="spacing" textLength="8" x="750.5271" y="689.9743">1</text></g><!--MD5=[8948e657cfcd66f3198f5ec8cbfa03f9]
link ListMap to PointOfInterest--><g id="link_ListMap_PointOfInterest"><path codeLine="51" d="M418.6484,761.1559 C418.6484,761.1559 422.52,798.35 424.24,814.87 " fill="none" id="ListMap-PointOfInterest" style="stroke:#181818;stroke-width:1.0;"/><polygon fill="#181818" points="425.6,827.91,428.6386,818.5416,425.078,822.9373,420.6823,819.3768,425.6,827.91" style="stroke:#181818;stroke-width:1.0;"/><line style="stroke:#181818;stroke-width:1.0;" x1="425.078" x2="424.255" y1="822.9373" y2="814.975"/><polygon fill="#181818" points="417.41,749.22,414.0505,755.6008,418.6484,761.1559,422.0078,754.7752,417.41,749.22" style="stroke:#181818;stroke-width:1.0;"/><text fill="#000000" font-family="sans-serif" font-size="13" lengthAdjust="spacing" textLength="40" x="423" y="794.0669">stores</text><text fill="#000000" font-family="sans-serif" font-size="13" lengthAdjust="spacing" textLength="8" x="409.0224" y="769.0348">1</text><text fill="#000000" font-family="sans-serif" font-size="13" lengthAdjust="spacing" textLength="23" x="399.0381" y="816.899">1..*</text></g><!--MD5=[b2e7dae31d3bfdafcae3e6343b9e2e16]
link Coordinate to PointOfInterest--><g id="link_Coordinate_PointOfInterest"><path codeLine="54" d="M667.63,753.11 C617.06,773.77 495.4187,823.4615 495.4187,823.4615 " fill="none" id="Coordinate-PointOfInterest" style="stroke:#181818;stroke-width:1.0;"/><polygon fill="none" points="484.31,828,491.3772,829.4337,495.4187,823.4615,488.3515,822.0279,484.31,828" style="stroke:#181818;stroke-width:1.0;"/><polygon fill="#181818" points="680,748.06,670.1558,747.7569,675.3706,749.9491,673.1784,755.1639,680,748.06" style="stroke:#181818;stroke-width:1.0;"/><line style="stroke:#181818;stroke-width:1.0;" x1="675.3706" x2="667.96" y1="749.9491" y2="752.975"/><text fill="#000000" font-family="sans-serif" font-size="13" lengthAdjust="spacing" textLength="64" x="600" y="794.0669">located at</text><text fill="#000000" font-family="sans-serif" font-size="13" lengthAdjust="spacing" textLength="8" x="663.8438" y="747.3244">1</text><text fill="#000000" font-family="sans-serif" font-size="13" lengthAdjust="spacing" textLength="8" x="489.7144" y="817.012">1</text></g><!--MD5=[ae1f6d158a60818757821c5e74c9895a]
link GridSearch to FindIsland--><g id="link_GridSearch_FindIsland"><path codeLine="57" d="M389.4195,334.1642 C389.4195,334.1642 372.27,350.25 365,358 C348.19,375.93 331.05,397.43 317.72,415.03 " fill="none" id="GridSearch-FindIsland" style="stroke:#181818;stroke-width:1.0;"/><polygon fill="#181818" points="309.74,425.69,318.3358,420.8824,312.7365,421.6874,311.9316,416.0881,309.74,425.69" style="stroke:#181818;stroke-width:1.0;"/><line style="stroke:#181818;stroke-width:1.0;" x1="312.7365" x2="317.53" y1="421.6874" y2="415.285"/><polygon fill="#181818" points="398.36,326.16,391.2217,327.182,389.4195,334.1642,396.5578,333.1423,398.36,326.16" style="stroke:#181818;stroke-width:1.0;"/><text fill="#000000" font-family="sans-serif" font-size="13" lengthAdjust="spacing" textLength="51" x="366" y="371.0669">involves</text><text fill="#000000" font-family="sans-serif" font-size="13" lengthAdjust="spacing" textLength="8" x="382.6478" y="345.9602">1</text><text fill="#000000" font-family="sans-serif" font-size="13" lengthAdjust="spacing" textLength="23" x="288.0173" y="415.0194">1..*</text></g><!--MD5=[93e632423a3ca3167ef45eeb609c4178]
link GridSearch to ScanLine--><g id="link_GridSearch_ScanLine"><path codeLine="58" d="M426,338.13 C426,338.13 426,390.55 426,412.95 " fill="none" id="GridSearch-ScanLine" style="stroke:#181818;stroke-width:1.0;"/><polygon fill="#181818" points="426,425.97,430,416.97,426,420.97,422,416.97,426,425.97" style="stroke:#181818;stroke-width:1.0;"/><line style="stroke:#181818;stroke-width:1.0;" x1="426" x2="426" y1="420.97" y2="412.97"/><polygon fill="#181818" points="426,326.13,422,332.13,426,338.13,430,332.13,426,326.13" style="stroke:#181818;stroke-width:1.0;"/><text fill="#000000" font-family="sans-serif" font-size="13" lengthAdjust="spacing" textLength="51" x="427" y="371.0669">involves</text><text fill="#000000" font-family="sans-serif" font-size="13" lengthAdjust="spacing" textLength="8" x="417.025" y="345.9229">1</text><text fill="#000000" font-family="sans-serif" font-size="13" lengthAdjust="spacing" textLength="23" x="400.0531" y="414.9743">1..*</text></g><!--MD5=[4c44ad30a08cb3523e35d4ab07ce13af]
link GridSearch to MoveToCorner--><g id="link_GridSearch_MoveToCorner"><path codeLine="59" d="M461.408,334.1881 C461.408,334.1881 479.12,350.39 487,358 C506.43,376.76 527.48,398.48 544.12,415.99 " fill="none" id="GridSearch-MoveToCorner" style="stroke:#181818;stroke-width:1.0;"/><polygon fill="#181818" points="553.36,425.76,550.0831,416.4723,549.9248,422.1269,544.2701,421.9686,553.36,425.76" style="stroke:#181818;stroke-width:1.0;"/><line style="stroke:#181818;stroke-width:1.0;" x1="549.9248" x2="544.435" y1="422.1269" y2="416.315"/><polygon fill="#181818" points="452.48,326.17,454.2713,333.1551,461.408,334.1881,459.6167,327.203,452.48,326.17" style="stroke:#181818;stroke-width:1.0;"/><text fill="#000000" font-family="sans-serif" font-size="13" lengthAdjust="spacing" textLength="51" x="505" y="371.0669">involves</text><text fill="#000000" font-family="sans-serif" font-size="13" lengthAdjust="spacing" textLength="8" x="449.9595" y="345.9726">1</text><text fill="#000000" font-family="sans-serif" font-size="13" lengthAdjust="spacing" textLength="23" x="522.2821" y="415.1065">1..*</text></g><!--MD5=[c24da0470462f867addc99c1f62543f3]
link GridSearch to UTurn--><g id="link_GridSearch_UTurn"><path codeLine="60" d="M476.7806,331.6909 C476.7806,331.6909 505.94,345.34 520,350 C539.28,356.39 545.16,353.63 565,358 C607.64,367.38 623.27,359.4 660,383 C672.74,391.19 683.92,403.37 692.76,415.05 " fill="none" id="GridSearch-UTurn" style="stroke:#181818;stroke-width:1.0;"/><polygon fill="#181818" points="700.48,425.95,698.5383,416.2944,697.5884,421.871,692.0119,420.921,700.48,425.95" style="stroke:#181818;stroke-width:1.0;"/><line style="stroke:#181818;stroke-width:1.0;" x1="697.5884" x2="692.96" y1="421.871" y2="415.34"/><polygon fill="#181818" points="466.09,326.24,469.6183,332.529,476.7806,331.6909,473.2522,325.4019,466.09,326.24" style="stroke:#181818;stroke-width:1.0;"/><text fill="#000000" font-family="sans-serif" font-size="13" lengthAdjust="spacing" textLength="51" x="646" y="371.0669">involves</text><text fill="#000000" font-family="sans-serif" font-size="13" lengthAdjust="spacing" textLength="8" x="476.8369" y="346.0597">1</text><text fill="#000000" font-family="sans-serif" font-size="13" lengthAdjust="spacing" textLength="23" x="671.0686" y="414.9492">1..*</text></g><!--MD5=[4029d14d79bc93a80087c59739420fdf]
link GridSearch to DroneController--><g id="link_GridSearch_DroneController"><path codeLine="61" d="M473.6102,331.6068 C473.6102,331.6068 504.7,346.04 520,350 C600.1,370.74 625.18,340.27 706,358 C734.62,364.28 740.78,369.92 767,383 C788.53,393.74 811.52,407.08 830.96,418.94 " fill="none" id="GridSearch-DroneController" style="stroke:#181818;stroke-width:1.0;"/><polygon fill="#181818" points="842.26,425.92,836.7043,417.7877,838.0059,423.2928,832.5008,424.5943,842.26,425.92" style="stroke:#181818;stroke-width:1.0;"/><line style="stroke:#181818;stroke-width:1.0;" x1="838.0059" x2="831.2" y1="423.2928" y2="419.09"/><polygon fill="#181818" points="462.99,326.02,466.4378,332.3534,473.6102,331.6068,470.1623,325.2733,462.99,326.02" style="stroke:#181818;stroke-width:1.0;"/><text fill="#000000" font-family="sans-serif" font-size="13" lengthAdjust="spacing" textLength="100" x="752" y="371.0669">commanded by</text><text fill="#000000" font-family="sans-serif" font-size="13" lengthAdjust="spacing" textLength="8" x="463.4437" y="346.1809">1</text><text fill="#000000" font-family="sans-serif" font-size="13" lengthAdjust="spacing" textLength="8" x="824.0766" y="414.9115">1</text></g><!--MD5=[af137e2fd1a362e77d8f2cab6bd335f3]
link GridSearch to BasicDrone--><g id="link_GridSearch_BasicDrone"><path codeLine="62" d="M359.9261,312.9899 C359.9261,312.9899 175.94,349.77 151,383 C120.32,423.88 116.88,459.94 151,498 C193.47,545.38 623.21,566.86 793.77,573.57 " fill="none" id="GridSearch-BasicDrone" style="stroke:#181818;stroke-width:1.0;"/><polygon fill="#181818" points="806.8,574.07,797.9606,569.7267,801.8037,573.8776,797.6528,577.7208,806.8,574.07" style="stroke:#181818;stroke-width:1.0;"/><line style="stroke:#181818;stroke-width:1.0;" x1="801.8037" x2="793.815" y1="573.8776" y2="573.565"/><polygon fill="#181818" points="371.76,311,365.1798,308.0503,359.9261,312.9899,366.5064,315.9396,371.76,311" style="stroke:#181818;stroke-width:1.0;"/><text fill="#000000" font-family="sans-serif" font-size="13" lengthAdjust="spacing" textLength="73" x="152" y="454.5669">scanned by</text><text fill="#000000" font-family="sans-serif" font-size="13" lengthAdjust="spacing" textLength="8" x="355.934" y="308.2774">1</text><text fill="#000000" font-family="sans-serif" font-size="13" lengthAdjust="spacing" textLength="8" x="791.0869" y="569.8091">1</text></g><!--MD5=[91aa335d709004d30b8a46ae20665ca6]
link Explorer to GridSearch--><g id="link_Explorer_GridSearch"><path codeLine="67" d="M426,192.14 C426,192.14 426,243.08 426,264.89 " fill="none" id="Explorer-GridSearch" style="stroke:#181818;stroke-width:1.0;"/><polygon fill="#181818" points="426,277.92,430,268.92,426,272.92,422,268.92,426,277.92" style="stroke:#181818;stroke-width:1.0;"/><line style="stroke:#181818;stroke-width:1.0;" x1="426" x2="426" y1="272.92" y2="264.92"/><polygon fill="#181818" points="426,180.14,422,186.14,426,192.14,430,186.14,426,180.14" style="stroke:#181818;stroke-width:1.0;"/><text fill="#000000" font-family="sans-serif" font-size="13" lengthAdjust="spacing" textLength="58" x="427" y="223.0669">performs</text><text fill="#000000" font-family="sans-serif" font-size="13" lengthAdjust="spacing" textLength="8" x="417.025" y="199.9353">1</text><text fill="#000000" font-family="sans-serif" font-size="13" lengthAdjust="spacing" textLength="8" x="416.975" y="266.9115">1</text></g><!--MD5=[563b3a6b70f90da8b530bacff014a831]
link Explorer to ListMap--><g id="link_Explorer_ListMap"><path codeLine="68" d="M369.9675,164.2449 C369.9675,164.2449 6,225.18 6,301 C6,301 6,301 6,578 C6,652.26 248.18,698.69 359.83,716.14 " fill="none" id="Explorer-ListMap" style="stroke:#181818;stroke-width:1.0;"/><polygon fill="#181818" points="372.77,718.13,364.4811,712.8108,367.8279,717.3714,363.2673,720.7181,372.77,718.13" style="stroke:#181818;stroke-width:1.0;"/><line style="stroke:#181818;stroke-width:1.0;" x1="367.8279" x2="359.92" y1="717.3714" y2="716.155"/><polygon fill="#181818" points="381.85,162.57,375.3504,159.4466,369.9675,164.2449,376.467,167.3683,381.85,162.57" style="stroke:#181818;stroke-width:1.0;"/><text fill="#000000" font-family="sans-serif" font-size="13" lengthAdjust="spacing" textLength="54" x="7" y="454.5669">explores</text><text fill="#000000" font-family="sans-serif" font-size="13" lengthAdjust="spacing" textLength="8" x="365.8752" y="159.4939">1</text><text fill="#000000" font-family="sans-serif" font-size="13" lengthAdjust="spacing" textLength="8" x="357.1132" y="712.8279">1</text></g><!--MD5=[e2dd9cc809d53f77f61a26e2e391b89a]
link Explorer to NavigationReport--><g id="link_Explorer_NavigationReport"><path codeLine="69" d="M465.1887,187.5119 C465.1887,187.5119 540.02,245.75 570.94,269.82 " fill="none" id="Explorer-NavigationReport" style="stroke:#181818;stroke-width:1.0;"/><polygon fill="#181818" points="581.35,277.92,576.7058,269.2349,577.4047,274.8484,571.7912,275.5473,581.35,277.92" style="stroke:#181818;stroke-width:1.0;"/><line style="stroke:#181818;stroke-width:1.0;" x1="577.4047" x2="571.095" y1="274.8484" y2="269.94"/><polygon fill="#181818" points="455.72,180.14,457.9971,186.9822,465.1887,187.5119,462.9116,180.6697,455.72,180.14" style="stroke:#181818;stroke-width:1.0;"/><text fill="#000000" font-family="sans-serif" font-size="13" lengthAdjust="spacing" textLength="59" x="513" y="223.0669">produces</text><text fill="#000000" font-family="sans-serif" font-size="13" lengthAdjust="spacing" textLength="8" x="453.9893" y="199.9353">1</text><text fill="#000000" font-family="sans-serif" font-size="13" lengthAdjust="spacing" textLength="8" x="564.7272" y="266.9115">1</text></g><!--MD5=[828c4d31d86dd89ed1227b58a346bc74]
link Runner to Explorer--><g id="link_Runner_Explorer"><path codeLine="72" d="M426,55.14 C426,75.49 426,105.19 426,126.91 " fill="none" id="Runner-to-Explorer" style="stroke:#181818;stroke-width:1.0;"/><polygon fill="#181818" points="426,131.97,430,122.97,426,126.97,422,122.97,426,131.97" style="stroke:#181818;stroke-width:1.0;"/><text fill="#000000" font-family="sans-serif" font-size="13" lengthAdjust="spacing" textLength="28" x="427" y="98.0669">runs</text><text fill="#000000" font-family="sans-serif" font-size="13" lengthAdjust="spacing" textLength="8" x="417.025" y="74.9353">1</text><text fill="#000000" font-family="sans-serif" font-size="13" lengthAdjust="spacing" textLength="8" x="416.975" y="120.9743">1</text></g><!--MD5=[9c98af3edab010b0dddf04cf10ff13ec]
@startuml
!define MyTheme
skinparam class {
    BackgroundColor #3ec8b2
    BorderColor #000000
    FontColor #000000
}

skinparam stereotypeCBackgroundColor #00CED1
skinparam stereotypeCBorderColor #000000
skinparam stereotypeCFontColor #000000

package drone {
    class DroneController 
    class BasicDrone 
}

package map {
    class ListMap
    class PointOfInterest
}

package stage {
    class FindIsland 
    class ScanLine
    class MoveToCorner
    class UTurn
}

package position {
    class Coordinate
}

package search {
    class GridSearch
}

package report {
    class NavigationReport
}

class Explorer
class Runner

' Relationships

' Drone relationships
DroneController "1" o- -> "1" BasicDrone : "controls"
BasicDrone "1" *- -> "1" Coordinate : "locates at"

' Map relationships
ListMap "1" *- -> "1..*" PointOfInterest : "stores"

' Position relationships
Coordinate "1" <- -o "1" PointOfInterest : "located at"

' Search relationships
GridSearch "1" *- -> "1..*" FindIsland : "involves"
GridSearch "1" *- -> "1..*" ScanLine : "involves"
GridSearch "1" *- -> "1..*" MoveToCorner : "involves"
GridSearch "1" *- -> "1..*" UTurn : "involves"
GridSearch "1" *- -> "1" DroneController : "commanded by"
GridSearch "1" *- -> "1" BasicDrone : "scanned by"



' Explorer relationships
Explorer "1" *- -> "1" GridSearch : "performs"
Explorer "1" *- -> "1" ListMap : "explores"
Explorer "1" *- -> "1" NavigationReport : "produces"

' Runner relationships
Runner "1" - -> "1" Explorer : "runs"
@enduml

@startuml
skinparam class {
    BackgroundColor #3ec8b2
    BorderColor #000000
    FontColor #000000
}

skinparam stereotypeCBackgroundColor #00CED1
skinparam stereotypeCBorderColor #000000
skinparam stereotypeCFontColor #000000

package drone {
    class DroneController 
    class BasicDrone 
}

package map {
    class ListMap
    class PointOfInterest
}

package stage {
    class FindIsland 
    class ScanLine
    class MoveToCorner
    class UTurn
}

package position {
    class Coordinate
}

package search {
    class GridSearch
}

package report {
    class NavigationReport
}

class Explorer
class Runner


DroneController "1" o- -> "1" BasicDrone : "controls"
BasicDrone "1" *- -> "1" Coordinate : "locates at"

ListMap "1" *- -> "1..*" PointOfInterest : "stores"

Coordinate "1" <- -o "1" PointOfInterest : "located at"

GridSearch "1" *- -> "1..*" FindIsland : "involves"
GridSearch "1" *- -> "1..*" ScanLine : "involves"
GridSearch "1" *- -> "1..*" MoveToCorner : "involves"
GridSearch "1" *- -> "1..*" UTurn : "involves"
GridSearch "1" *- -> "1" DroneController : "commanded by"
GridSearch "1" *- -> "1" BasicDrone : "scanned by"



Explorer "1" *- -> "1" GridSearch : "performs"
Explorer "1" *- -> "1" ListMap : "explores"
Explorer "1" *- -> "1" NavigationReport : "produces"

Runner "1" - -> "1" Explorer : "runs"
@enduml

PlantUML version 1.2022.7(Mon Aug 22 17:01:30 UTC 2022)
(GPL source distribution)
Java Runtime: OpenJDK Runtime Environment
JVM: OpenJDK 64-Bit Server VM
Default Encoding: UTF-8
Language: en
Country: null
--></g></svg>